<svg width="26" height="26" viewBox="0 0 26 26" fill="none" xmlns="http://www.w3.org/2000/svg">
<path d="M9.72727 1L10.4344 0.292893C10.2468 0.105357 9.99249 0 9.72727 0V1ZM1 1V0C0.447715 0 0 0.447715 0 1L1 1ZM15.7273 7.00001L15.0202 7.70712C15.2077 7.89465 15.4621 8.00001 15.7273 8.00001C15.9925 8.00001 16.2469 7.89465 16.4344 7.70712L15.7273 7.00001ZM20.6364 2.09093L21.3435 1.38382C20.9529 0.993295 20.3198 0.993295 19.9293 1.38382L20.6364 2.09093ZM25 6.45455L25.7704 5.81698C25.7504 5.79282 25.7293 5.76962 25.7071 5.74744L25 6.45455ZM25 6.45456L25.7071 7.16167C26.0719 6.79687 26.0993 6.21444 25.7704 5.817L25 6.45456ZM25 6.45457L24.2929 5.74747C24.1053 5.935 24 6.18936 24 6.45457H25ZM25 25V26C25.5523 26 26 25.5523 26 25H25ZM18.4545 25H17.4545C17.4545 25.2652 17.5599 25.5196 17.7474 25.7071C17.935 25.8947 18.1893 26 18.4545 26V25ZM18.4545 13H19.4545C19.4545 12.5956 19.2109 12.2309 18.8372 12.0761C18.4636 11.9214 18.0334 12.0069 17.7474 12.2929L18.4545 13ZM6.45455 25L5.74744 25.7071C6.13796 26.0977 6.77113 26.0977 7.16165 25.7071L6.45455 25ZM2.09091 20.6364L1.3838 19.9293C1.19627 20.1168 1.09091 20.3712 1.09091 20.6364C1.09091 20.9016 1.19627 21.156 1.3838 21.3435L2.09091 20.6364ZM13 9.72727L13.7071 10.4344C13.9931 10.1484 14.0787 9.71826 13.9239 9.34459C13.7691 8.97091 13.4045 8.72727 13 8.72727V9.72727ZM1 9.72727H0C0 10.2796 0.447715 10.7273 1 10.7273L1 9.72727ZM9.72727 0H1V2H9.72727V0ZM16.4344 6.2929L10.4344 0.292893L9.02017 1.70711L15.0202 7.70712L16.4344 6.2929ZM16.4344 7.70712L21.3435 2.79803L19.9293 1.38382L15.0202 6.2929L16.4344 7.70712ZM19.9293 2.79803L24.2929 7.16166L25.7071 5.74744L21.3435 1.38382L19.9293 2.79803ZM24.2296 7.09212L24.2296 7.09213L25.7704 5.817L25.7704 5.81698L24.2296 7.09212ZM24.2929 5.74746L24.2929 5.74747L25.7071 7.16168L25.7071 7.16167L24.2929 5.74746ZM26 25V6.45457H24V25H26ZM18.4545 26H25V24H18.4545V26ZM17.4545 13L17.4545 25H19.4545L19.4545 13H17.4545ZM17.7474 12.2929L5.74744 24.2929L7.16165 25.7071L19.1616 13.7071L17.7474 12.2929ZM7.16165 24.2929L2.79802 19.9293L1.3838 21.3435L5.74744 25.7071L7.16165 24.2929ZM2.79802 21.3435L13.7071 10.4344L12.2929 9.02017L1.3838 19.9293L2.79802 21.3435ZM1 10.7273H13V8.72727H1V10.7273ZM0 1V9.72727H2V1H0Z" fill="#E83539"/>
</svg>
